<?xml version="1.0" encoding="UTF-8" standalone="no"?>
<svg
     xmlns:dc="http://purl.org/dc/elements/1.1/"
     xmlns:cc="http://creativecommons.org/ns#"
     xmlns:rdf="http://www.w3.org/1999/02/22-rdf-syntax-ns#"
     xmlns:svg="http://www.w3.org/2000/svg"
     xmlns="http://www.w3.org/2000/svg"
     version="1.1"
     id="svg4730"
     viewBox="0 0 300 300"
     height="50"
     width="50">
    <defs
         id="defs4732">
        <clipPath
             clipPathUnits="userSpaceOnUse"
             id="clipPath4674">
            <path
                 d="M 0,500 1024,500 1024,0 0,0 0,500 Z"
                 id="path4676" />
        </clipPath>
    </defs>
    <metadata
         id="metadata4735">
        <rdf:RDF>
            <cc:Work
                 rdf:about="">
                <dc:format>image/svg+xml</dc:format>
                <dc:type
                     rdf:resource="http://purl.org/dc/dcmitype/StillImage" />
                <dc:title></dc:title>
            </cc:Work>
        </rdf:RDF>
    </metadata>
    <rect x="0" y="0" height="300" width="300" fill="#0866ff" rx="60" ry="60" />
    <g
         transform="translate(-33.466291,-429.48076)"
         id="layer1">
        <g
             transform="matrix(1.1165523,0,0,-1.1165523,-103.48743,863.08638)"
             id="g4670">
            <g
                 id="g4672"
                 clip-path="url(#clipPath4674)">
                <g
                     id="g4682"
                     transform="translate(307.7046,120.5527)">
                    <path
                         d="m 0,0 0,103.355 34.693,0 5.194,40.28 -39.887,0 0,25.717 c 0,11.662 3.238,19.609 19.962,19.609 l 21.33,0.01 0,36.026 c -3.69,0.49 -16.351,1.587 -31.081,1.587 -30.753,0 -51.806,-18.771 -51.806,-53.244 l 0,-29.705 -34.781,0 0,-40.28 34.781,0 L -41.595,0 0,0 Z"
                         style="fill:#ffffff;fill-opacity:1;fill-rule:nonzero;stroke:none"
                         id="path4684" />
                </g>
            </g>
        </g>
    </g>
</svg>
