<?xml version="1.0" encoding="UTF-8" standalone="no"?>
<!-- Creator: CorelDRAW 2020 (64-Bit) -->

<svg
   xml:space="preserve"
   width="48"
   height="48"
   version="1.1"
   style="clip-rule:evenodd;fill-rule:evenodd;image-rendering:optimizeQuality;shape-rendering:geometricPrecision;text-rendering:geometricPrecision"
   viewBox="0 0 27093.334 27093.334"
   id="svg8"
   sodipodi:docname="TikTok_Reversed.svg"
   inkscape:version="1.3.2 (091e20e, 2023-11-25, custom)"
   xmlns:inkscape="http://www.inkscape.org/namespaces/inkscape"
   xmlns:sodipodi="http://sodipodi.sourceforge.net/DTD/sodipodi-0.dtd"
   xmlns="http://www.w3.org/2000/svg"
   xmlns:svg="http://www.w3.org/2000/svg"><sodipodi:namedview
   id="namedview8"
   pagecolor="#ffffff"
   bordercolor="#000000"
   borderopacity="0.25"
   inkscape:showpageshadow="2"
   inkscape:pageopacity="0.0"
   inkscape:pagecheckerboard="0"
   inkscape:deskcolor="#d1d1d1"
   inkscape:document-units="px"
   inkscape:zoom="0.4970694"
   inkscape:cx="510.99505"
   inkscape:cy="512.00094"
   inkscape:window-width="1366"
   inkscape:window-height="705"
   inkscape:window-x="-8"
   inkscape:window-y="-8"
   inkscape:window-maximized="1"
   inkscape:current-layer="_2316252879344" />
 <g
   id="_2316252879344"
   transform="matrix(1.3031394,0,0,1.3031394,-20.574063,-18.764321)"
   style="clip-rule:evenodd;fill-rule:evenodd;image-rendering:optimizeQuality;shape-rendering:geometricPrecision;text-rendering:geometricPrecision">
   <path
   d="M 15839.358,24.380823 H 4983.0384 C 2256.5336,24.380823 25.769579,2246.8917 25.769579,4963.3095 V 15856.309 c 0,2716.417 2230.764021,4938.928 4957.268821,4938.928 H 15839.358 c 2726.505,0 4957.268,-2222.511 4957.268,-4938.928 V 4963.3095 c 0,-2716.4178 -2230.763,-4938.928677 -4957.268,-4938.928677 z"
   id="path1"
   style="fill:#0b0b16;fill-opacity:1;stroke:#0b0b16;stroke-opacity:1" />
  <g
   id="g9"
   style="clip-rule:evenodd;fill-rule:evenodd;image-rendering:optimizeQuality;shape-rendering:geometricPrecision;text-rendering:geometricPrecision;display:inline"
   transform="matrix(20.303533,0,0,20.303533,15.788075,14.39932)"><path
     d="m 0,0 c 43.23,0 86.46,0 131,0 0.33,6.27 0.66,12.54 1,19 2.87,32.26 15.8,65.56 36,91 0.75,0.96 1.51,1.91 2.29,2.9 3.26,4.07 6.52,8.03 10.27,11.66 0.81,0.81 1.61,1.61 2.44,2.44 0,0.66 0,1.32 0,2 0.58,0.25 1.17,0.51 1.77,0.77 2.47,1.36 3.98,2.85 5.89,4.91 4.25,4.34 8.81,7.94 13.72,11.51 0.78,0.59 1.57,1.18 2.38,1.78 5.48,4.03 11.1,7.12 17.24,10.03 1.32,0.67 2.64,1.35 3.95,2.03 27.49,14.11 52.93,19.49 84.05,20.97 0,43.23 0,86.46 0,131 -29.28,0 -29.28,0 -40.75,-1.56 -0.99,-0.13 -0.99,-0.13 -1.99,-0.26 C 237.97,306.02 207.38,296.8 179,283 c -0.72,-0.34 -1.43,-0.69 -2.17,-1.04 C 161.82,274.74 147.76,266.38 134,257 c -0.99,-0.66 -1.98,-1.32 -3,-2 0,0.58 0,1.16 0,1.76 0.09,34.59 0.16,69.18 0.2,103.77 0.01,4.17 0.01,8.34 0.02,12.51 0,0.83 0,1.66 0,2.51 0.02,13.37 0.05,26.75 0.09,40.12 0.04,13.76 0.06,27.51 0.07,41.27 0,8.47 0.02,16.93 0.05,25.4 0.02,5.83 0.03,11.66 0.02,17.5 0,3.34 0.01,6.69 0.03,10.04 0.28,51.39 -12.16,102.87 -42.48,145.12 -0.49,0.69 -0.98,1.37 -1.48,2.08 -5.68,7.93 -11.62,15.44 -18.31,22.55 -1.9,2.03 -3.68,4.11 -5.46,6.25 -36.99,42.24 -96.55,68.8 -152.03,72.91 -49.63,2.85 -104.64,-4.61 -145.72,-34.79 -1.3,-0.72 -2.61,-1.41 -3.94,-2.06 -22.54,-12.27 -43.5,-32.81 -59.06,-52.94 -0.79,-0.97 -1.57,-1.94 -2.38,-2.93 -40.07,-49.84 -54.86,-114.47 -48.56,-177.32 4.93,-43.48 23.31,-85.9 50.94,-119.75 0.8,-1.01 1.61,-2.01 2.43,-3.05 11.85,-14.61 25.36,-27.88 40.57,-38.95 1.15,-0.86 2.3,-1.71 3.45,-2.57 7.61,-5.62 15.5,-10.67 23.71,-15.37 1.74,-1 3.48,-2.03 5.21,-3.05 16.92,-9.57 35.84,-16.14 54.63,-21.01 1.13,-0.29 2.26,-0.59 3.43,-0.89 17.01,-4.16 34.23,-5.3 51.68,-5.3 2.26,0 4.51,-0.02 6.77,-0.03 1.48,-0.01 2.97,-0.01 4.46,-0.01 1.3,0 2.61,-0.01 3.95,-0.01 6.6,0.34 13.16,1.37 19.71,2.24 0,43.89 0,87.78 0,133 -10,-2 -10,-2 -13.15,-2.63 -13.52,-2.39 -27.44,-2.31 -40.85,0.63 -0.98,0.17 -1.97,0.34 -2.98,0.52 -25.24,4.87 -49.45,21.4 -64.02,42.48 -17.15,25.8 -23.93,54.85 -18.48,85.53 1.58,7.84 4.26,15.17 7.48,22.47 0.27,0.61 0.54,1.23 0.81,1.86 3.99,8.93 8.97,16.61 15.19,24.14 1.16,1.41 1.16,1.41 2.34,2.84 13.11,15.15 29.74,24.99 48.66,31.16 1.21,0.42 2.43,0.83 3.68,1.26 18.64,5.43 43.1,5.44 61.32,-1.26 1.09,-0.36 2.18,-0.72 3.3,-1.1 12.83,-4.53 24.49,-10.91 34.7,-19.9 0.82,-0.68 1.64,-1.35 2.48,-2.05 13.61,-11.56 23.03,-26.75 29.33,-43.33 0.28,-0.71 0.56,-1.43 0.85,-2.17 5.38,-14.94 5.78,-29.85 5.74,-45.53 0,-2.21 0.01,-4.41 0.02,-6.62 0.02,-6.01 0.02,-12.03 0.01,-18.05 0,-5.83 0.02,-11.67 0.03,-17.5 0.03,-11.93 0.04,-23.86 0.04,-35.78 0.01,-11.8 0.02,-23.6 0.04,-35.4 0,-0.73 0,-1.47 0,-2.22 0.01,-3.74 0.01,-7.47 0.02,-11.2 0.04,-26.41 0.07,-52.82 0.09,-79.22 0.02,-25.65 0.05,-51.3 0.09,-76.94 0,-0.79 0,-1.58 0,-2.4 0.01,-7.95 0.02,-15.89 0.03,-23.84 0.03,-16.18 0.05,-32.37 0.07,-48.56 0,-0.74 0,-1.48 0,-2.25 0.03,-22.8 0.06,-45.59 0.08,-68.39 0.01,-1.92 0.01,-1.92 0.01,-3.87 C -0.05,51.12 -0.02,25.56 0,0 Z"
     fill="#ffffff"
     transform="translate(511,115)"
     id="path2-6" /><path
     d="m 0,0 c 5.37,0.6 10.66,1.22 16,2 8.3,1.04 16.65,1.51 25,2 0,43.56 0,87.12 0,132 -59.91,0 -119.09,-16.73 -169.21,-49.89 -1.04,-0.69 -2.09,-1.38 -3.17,-2.08 -2.54,-1.68 -5.08,-3.35 -7.62,-5.03 0,0.89 0,0.89 0,1.79 -0.06,35.06 -0.14,70.13 -0.23,105.19 -0.01,4.22 -0.02,8.45 -0.03,12.67 0,0.84 -0.01,1.68 -0.01,2.54 -0.03,13.56 -0.06,27.13 -0.08,40.69 -0.02,13.94 -0.06,27.88 -0.1,41.82 -0.03,8.58 -0.04,17.17 -0.05,25.75 0,5.91 -0.02,11.82 -0.05,17.73 -0.01,3.39 -0.02,6.79 -0.02,10.18 0.01,20.28 -1.1,40.26 -6.05,60.02 -0.38,1.53 -0.38,1.53 -0.77,3.09 -8.65,33.59 -24.08,64.42 -45.61,91.53 -0.43,0.55 -0.86,1.1 -1.31,1.66 -11.2,14.13 -24.24,27.53 -38.69,38.34 -0.89,0.69 -0.89,0.69 -1.81,1.4 -41.89,32.36 -93.15,49.35 -145.88,49.04 -1.65,-0.01 -1.65,-0.01 -3.34,-0.01 -16.01,-0.07 -31.35,-0.61 -46.97,-4.43 -1.02,-0.23 -2.03,-0.46 -3.08,-0.7 -40.4,-9.25 -88.27,-30.88 -114.92,-64.3 3.16,1.55 6.25,3.22 9.35,4.91 58.02,31.25 123.34,38.83 186.74,20.58 9.56,-2.87 18.76,-6.51 27.91,-10.49 0.8,-0.34 1.59,-0.69 2.41,-1.04 17.18,-7.51 32.91,-17.3 47.59,-28.96 0.87,-0.68 1.75,-1.36 2.64,-2.06 21.84,-17.4 39.91,-38.07 54.36,-61.94 0.66,-1.09 1.33,-2.19 2.01,-3.31 12.53,-21.27 21.9,-44.16 27.37,-68.25 0.22,-0.99 0.45,-1.98 0.68,-3 4.41,-20.83 5.39,-41.63 5.37,-62.87 0.01,-2.76 0.02,-5.52 0.03,-8.28 0.03,-5.9 0.04,-11.79 0.04,-17.68 0.01,-8.52 0.03,-17.04 0.06,-25.56 0.04,-13.83 0.07,-27.66 0.09,-41.49 0.02,-13.42 0.05,-26.83 0.09,-40.25 0,-0.83 0,-1.66 0,-2.51 0.02,-4.17 0.03,-8.33 0.04,-12.5 0.09,-34.43 0.16,-68.87 0.22,-103.3 2.75,1.36 5.34,2.8 7.91,4.47 40.37,25.98 84.5,43.8 132.34,49.91 1.81,0.23 1.81,0.23 3.65,0.47 12.4,1.43 24.53,1.65 37.1,2.15 C 0,68.34 0,34.68 0,0 Z"
     fill="#fc2c55"
     transform="translate(823,325)"
     id="path3-8" /><path
     d="m 0,0 c 43.23,0 86.46,0 131,0 0.33,6.27 0.66,12.54 1,19 0.79,5.76 0.79,5.76 1.7,11.51 0.1,0.82 0.2,1.64 0.3,2.49 -1.84,1.84 -4.45,1.12 -6.9,1.12 -0.85,0 -1.69,0 -2.57,-0.01 -0.88,0 -1.77,0 -2.69,0 -2.95,0 -5.89,0 -8.84,-0.01 -2.04,0 -4.08,-0.01 -6.12,-0.01 -5.38,0 -10.76,-0.01 -16.13,-0.02 C 85.26,34.06 79.78,34.05 74.3,34.05 63.53,34.04 52.77,34.02 42,34 c 0,1.1 0,2.2 0,3.33 0.04,48.5 0.07,97 0.08,145.49 0,0.74 0.01,1.47 0.01,2.23 0,15.97 0.01,31.94 0.01,47.91 0,7.84 0.01,15.67 0.01,23.5 0,0.78 0,1.56 0,2.36 0.01,25.24 0.02,50.48 0.04,75.72 0.02,25.95 0.03,51.9 0.04,77.85 0,3.67 0,7.34 0,11.01 0,1.08 0,1.08 0,2.19 0,11.6 0.01,23.2 0.02,34.8 0.02,11.68 0.02,23.36 0.02,35.03 0,6.32 0,12.65 0.01,18.97 0.01,5.79 0.01,11.59 0,17.39 0,2.08 0,4.17 0.01,6.26 0.09,32.52 0.09,32.52 -5.37,47.65 C 36.42,587 36.42,587 35.95,588.34 31.28,601.25 24.72,612.36 16,623 c -0.69,0.85 -1.37,1.7 -2.08,2.58 C 1.68,639.99 -14.27,649.8 -32,656 c -0.77,0.29 -1.54,0.57 -2.33,0.87 -2.2,0.79 -4.42,1.47 -6.67,2.13 -0.91,0.28 -1.81,0.56 -2.75,0.85 -26.26,6.92 -55.44,1.46 -78.81,-11.79 -5.9,-3.56 -11.25,-7.53 -16.44,-12.06 -0.87,-0.75 -1.73,-1.49 -2.62,-2.26 -4.9,-4.29 -9.29,-8.68 -13.38,-13.74 0.33,-0.66 0.66,-1.32 1,-2 0.67,0.31 1.34,0.63 2.03,0.95 22.38,9.98 51.61,12.63 74.97,4.05 1.09,-0.36 2.18,-0.72 3.3,-1.1 12.83,-4.53 24.49,-10.91 34.7,-19.9 0.82,-0.68 1.64,-1.35 2.48,-2.05 13.61,-11.56 23.03,-26.75 29.33,-43.33 0.28,-0.71 0.56,-1.43 0.85,-2.17 5.38,-14.94 5.78,-29.85 5.74,-45.53 0,-2.21 0.01,-4.41 0.02,-6.62 0.02,-6.01 0.02,-12.03 0.01,-18.05 0,-5.83 0.02,-11.67 0.03,-17.5 0.03,-11.93 0.04,-23.86 0.04,-35.78 0.01,-11.8 0.02,-23.6 0.04,-35.4 0,-0.73 0,-1.47 0,-2.22 0.01,-3.74 0.01,-7.47 0.02,-11.2 0.04,-26.41 0.07,-52.82 0.09,-79.22 0.02,-25.65 0.05,-51.3 0.09,-76.94 0,-0.79 0,-1.58 0,-2.4 0.01,-7.95 0.02,-15.89 0.03,-23.84 0.03,-16.18 0.05,-32.37 0.07,-48.56 0,-0.74 0,-1.48 0,-2.25 0.03,-22.8 0.06,-45.59 0.08,-68.39 C -0.07,79.27 -0.07,78 -0.07,76.68 -0.05,51.12 -0.02,25.56 0,0 Z"
     fill="#27f3ed"
     transform="translate(511,115)"
     id="path4-2" /><path
     d="m 0,0 c 2.26,0 4.51,-0.02 6.76,-0.04 1.49,0 2.98,0 4.47,-0.01 1.3,0 2.61,0 3.95,-0.01 6.6,0.34 13.16,1.37 19.71,2.25 0,10.23 0,20.46 0,31 -3.18,1.05 -5.89,1.33 -9.22,1.61 -1.25,0.11 -2.51,0.22 -3.8,0.34 -0.66,0.05 -1.32,0.11 -2,0.17 -12.22,1.11 -24.15,2.52 -35.98,5.88 -0.75,0.21 -1.49,0.42 -2.26,0.63 -39.18,11.25 -74.34,31.15 -103.74,59.37 -0.56,0.53 -1.12,1.07 -1.7,1.62 -8.6,8.21 -16.3,16.76 -23.3,26.38 -0.67,0.92 -0.67,0.92 -1.36,1.86 -36.73,50.8 -54.08,113.88 -44.33,176.26 0.54,3.3 1.11,6.59 1.69,9.88 0.14,0.87 0.29,1.74 0.44,2.64 7.34,44.07 31.47,90.96 64.56,121.36 -14.67,0 -34.57,-24.59 -44.69,-34.5 -5.16,-5.22 -9.79,-10.73 -14.31,-16.5 -0.79,-0.98 -1.58,-1.95 -2.39,-2.95 -39.91,-50.09 -54.87,-114.27 -48.55,-177.3 4.93,-43.49 23.31,-85.9 50.94,-119.75 1.2,-1.51 1.2,-1.51 2.43,-3.06 11.85,-14.61 25.36,-27.88 40.57,-38.94 1.15,-0.86 2.3,-1.72 3.45,-2.58 7.61,-5.61 15.5,-10.67 23.71,-15.37 1.74,-1 3.47,-2.02 5.21,-3.04 16.92,-9.58 35.84,-16.15 54.63,-21.01 1.13,-0.3 2.26,-0.59 3.43,-0.9 C -34.67,1.13 -17.45,0 0,0 Z"
     fill="#25f3ed"
     transform="translate(399.11035,393.8147)"
     id="path5-7" /><path
     d="m 0,0 c 30,0 30,0 42,2 0,44.22 0,88.44 0,134 -10.89,-1.98 -10.89,-1.98 -22,-4 -4,-0.28 -7.61,-0.5 -11.56,-0.38 -0.91,0.02 -1.82,0.04 -2.76,0.05 -7.02,0.18 -13.83,0.77 -20.68,2.33 -1.09,0.24 -2.18,0.49 -3.3,0.74 -26.52,6.78 -50.57,23.83 -64.92,47.25 -5.62,9.58 -9.85,19.28 -12.78,30.01 -0.32,1.13 -0.64,2.26 -0.96,3.43 -6.84,28.3 -0.58,57.85 13.96,82.57 0.74,1.09 1.48,2.18 2.25,3.31 C -79,304 -79,304 -79,306 c -22.51,-6.66 -39.87,-28.99 -50.95,-48.41 -13.43,-25.32 -15.91,-55.45 -7.83,-82.86 4.37,-13.81 11.27,-26.77 20.78,-37.73 0.66,-0.8 1.33,-1.59 2.01,-2.41 C -96.51,113.13 -70.28,99.26 -42,97 -27.94,96.21 -13.2,96.72 0,102 0,68.34 0,34.68 0,0 Z"
     fill="#fb2c55"
     transform="translate(434,427)"
     id="path6-2" /><path
     d="m 0,0 c 12.54,0 25.08,0 38,0 0.41,4.19 0.83,8.37 1.25,12.69 2.84,26.77 8.82,50.54 21.75,74.31 0.32,0.6 0.64,1.2 0.97,1.83 6.51,12.26 14.68,22.92 24.03,33.17 -0.99,0.5 -0.99,0.5 -2,1 C 71.79,116.94 60.27,106.88 51,97 50.15,96.15 49.31,95.31 48.44,94.44 47.63,93.63 46.83,92.83 46,92 45.5,91.54 45,91.07 44.49,90.6 34.92,81.5 27.53,70.4 21,59 20.61,58.34 20.23,57.69 19.83,57.01 11.68,43.08 6.7,28.4 2,13 1.77,12.29 1.54,11.59 1.31,10.86 0.07,6.89 0,4.39 0,0 Z"
     fill="#f92c55"
     transform="translate(645,148)"
     id="path7-0" /><path
     d="M 0,0 C 0.75,0.36 0.75,0.36 1.51,0.73 31.06,15.03 58.11,22.9 91,24 91,33.57 91,43.14 91,53 81.98,51.87 81.98,51.87 78.44,50.65 77.65,50.38 76.86,50.11 76.05,49.83 75.23,49.54 74.41,49.24 73.56,48.94 72.69,48.63 71.82,48.32 70.92,48 47.54,39.46 26.92,26.66 8.79,9.58 6.78,7.72 4.78,6 2.65,4.3 1.77,3.54 0.9,2.78 0,2 0,1.34 0,0.68 0,0 Z"
     fill="#27f2ec"
     transform="translate(732,272)"
     id="path8-0" /></g></g>
</svg>
